<!DOCTYPE svg PUBLIC "-//W3C//DTD SVG 1.1//EN" "http://www.w3.org/Graphics/SVG/1.1/DTD/svg11.dtd">
<!-- Uploaded to: SVG Repo, www.svgrepo.com, Transformed by: SVG Repo Mixer Tools -->
<svg height="256px" width="256px" version="1.1" id="Layer_1" xmlns="http://www.w3.org/2000/svg" xmlns:xlink="http://www.w3.org/1999/xlink" viewBox="0 0 512 512" xml:space="preserve" fill="#000000" transform="rotate(45)matrix(-1, 0, 0, 1, 0, 0)" stroke="#000000">
<g id="SVGRepo_bgCarrier" stroke-width="0"/>
<g id="SVGRepo_tracerCarrier" stroke-linecap="round" stroke-linejoin="round" stroke="#CCCCCC" stroke-width="1.024"/>
<g id="SVGRepo_iconCarrier"> <path style="fill:#ffd57a;" d="M256,380.198c137.186,0,248.396-111.21,248.396-248.396H7.604 C7.604,268.988,118.814,380.198,256,380.198z"/> <path style="fill:#fe902a;" d="M156.698,325.972c30.36,15.569,64.198,23.811,99.302,23.811c58.224,0,112.964-22.674,154.135-63.845 c41.171-41.171,63.845-95.911,63.845-154.135H38.02c0,58.224,22.674,112.964,63.845,154.135 c11.545,11.545,24.157,21.636,37.614,30.18"/> <path style="fill:#71514b;" d="M481.584,124.198H30.416H0v7.604c0,68.38,26.629,132.668,74.981,181.019 C123.332,361.173,187.62,387.802,256,387.802s132.667-26.629,181.019-74.981C485.371,264.47,512,200.182,512,131.802v-7.604H481.584 z M263.604,150.159l135.672,135.672c-37.199,34.662-84.858,54.403-135.672,56.197V150.159z M410.03,275.079l-10.751-10.751 c26.193-28.254,43.208-62.981,49.354-100.893l-15.012-2.433c-5.632,34.742-21.18,66.588-45.106,92.563L274.357,139.406h191.884 C464.45,190.222,444.693,237.879,410.03,275.079z M237.643,139.406L101.97,275.078c-34.663-37.199-54.42-84.857-56.213-135.672 H237.643z M426.266,302.068c-45.48,45.48-105.949,70.526-170.266,70.526s-124.786-25.046-170.266-70.526 c-43.683-43.683-68.517-101.192-70.41-162.662h15.231c1.889,57.405,25.121,111.099,65.931,151.908 c11.84,11.84,24.933,22.344,38.915,31.222l8.151-12.839c-10.926-6.937-21.262-14.954-30.829-23.868l135.672-135.67v191.873 c-31.088-1.074-60.735-8.729-88.228-22.828l-6.94,13.533c31.446,16.125,66.984,24.649,102.772,24.649 c60.256,0,116.905-23.465,159.512-66.072c40.81-40.809,64.043-94.503,65.931-151.908h15.231 C494.783,200.875,469.949,258.385,426.266,302.068z"/> </g>
</svg>